# xmcd
#
# Track frame offsets:
#	150
#	17501
#	32669
#	48493
#	65774
#	79502
#	93453
#	113705
#	130866
#	143352
#	161261
#	176523
#	190492
#	205977
#	219617
#	234322
#	252593
#
# Disc length: 3628 seconds
#
# Revision: 1
# Processed by: cddbd v1.5.2PL0 Copyright (c) Steve Scherf et al.
# Submitted via: audiograbber 1.83.01
#
DISCID=e50e2a11
DTITLE=Kollegah and Farid Bang - Jung, Brutal, Gutaussehend 3
DYEAR=2017
DGENRE=Deutsch Hip-Hop - Rap
TTITLE0=Sturmmaske auf (Intro)
TTITLE1=Ave Maria
TTITLE2=Gamechanger
TTITLE3=Rap wieder Rap
TTITLE4=Studiogangster
TTITLE5=Wenn der Gegner am Boden liegt
TTITLE6=Es wird Zeit
TTITLE7=Düsseldorfer
TTITLE8=Jagdsaison
TTITLE9=Jung Brutal Gutaussehend 2017
TTITLE10=Frontload
TTITLE11=Warlordz
TTITLE12=Die letzte Gangsterrapcrew
TTITLE13=Massephase
TTITLE14=Eines Tages
TTITLE15=In jeder deutschen Großstadt
TTITLE16=Älter brutaler skrupelloser (Outro)
EXTD=Release-Date: 01.12.2017\n\nMARO\n
EXTT0=
EXTT1=
EXTT2=
EXTT3=
EXTT4=
EXTT5=
EXTT6=
EXTT7=
EXTT8=
EXTT9=
EXTT10=
EXTT11=
EXTT12=
EXTT13=
EXTT14=
EXTT15=
EXTT16=
PLAYORDER=
